<svg xmlns="http://www.w3.org/2000/svg" width="27.86" height="20.895" viewBox="0 0 27.86 20.895"><g id="envelope" data-name="Grupo 3" transform="translate(-280.226 -2603)"><path id="envelope" d="M0,5.482A3.482,3.482,0,0,1,3.482,2H24.377A3.482,3.482,0,0,1,27.86,5.482v13.93a3.482,3.482,0,0,1-3.482,3.483H3.482A3.483,3.483,0,0,1,0,19.412ZM3.482,3.741A1.741,1.741,0,0,0,1.741,5.482V5.86L13.93,13.174,26.119,5.86V5.482a1.741,1.741,0,0,0-1.741-1.741ZM26.119,7.891l-8.285,4.971,8.285,5.008V7.892ZM26.06,19.867l-9.916-5.992L13.93,15.2l-2.215-1.329L1.8,19.865a1.741,1.741,0,0,0,1.682,1.289H24.377A1.741,1.741,0,0,0,26.06,19.867Zm-24.318-2,8.285-5.008L1.741,7.891v9.977Z" transform="translate(280.226 2601)" fill="#00b3c8"/></g></svg>
