<svg width="73" height="73" viewBox="0 0 73 73" fill="none" xmlns="http://www.w3.org/2000/svg">
<g clip-path="url(#clip0_16_161)">
<path d="M55.5074 43.7887C53.1166 48.6341 49.8773 53.4613 46.5649 57.7956C43.4227 61.8819 40.0629 65.7961 36.5 69.5212C32.9371 65.7961 29.5772 61.8819 26.4351 57.7956C23.1228 53.4613 19.8834 48.6341 17.4926 43.7887C15.0745 38.8932 13.6875 34.3079 13.6875 30.375C13.6875 24.3247 16.091 18.5223 20.3691 14.2441C24.6473 9.96595 30.4497 7.5625 36.5 7.5625C42.5503 7.5625 48.3527 9.96595 52.6309 14.2441C56.909 18.5223 59.3125 24.3247 59.3125 30.375C59.3125 34.3079 57.9209 38.8932 55.5074 43.7887ZM36.5 76C36.5 76 63.875 50.0576 63.875 30.375C63.875 23.1147 60.9909 16.1518 55.857 11.018C50.7232 5.88414 43.7603 3 36.5 3C29.2397 3 22.2768 5.88414 17.143 11.018C12.0091 16.1518 9.125 23.1147 9.125 30.375C9.125 50.0576 36.5 76 36.5 76Z" fill="#FF6464"/>
<path d="M36.5 39.5C34.0799 39.5 31.7589 38.5386 30.0477 36.8274C28.3364 35.1161 27.375 32.7951 27.375 30.375C27.375 27.9549 28.3364 25.6339 30.0477 23.9227C31.7589 22.2114 34.0799 21.25 36.5 21.25C38.9201 21.25 41.2411 22.2114 42.9523 23.9227C44.6636 25.6339 45.625 27.9549 45.625 30.375C45.625 32.7951 44.6636 35.1161 42.9523 36.8274C41.2411 38.5386 38.9201 39.5 36.5 39.5ZM36.5 44.0625C40.1301 44.0625 43.6116 42.6204 46.1785 40.0535C48.7454 37.4866 50.1875 34.0051 50.1875 30.375C50.1875 26.7448 48.7454 23.2634 46.1785 20.6965C43.6116 18.1296 40.1301 16.6875 36.5 16.6875C32.8698 16.6875 29.3884 18.1296 26.8215 20.6965C24.2546 23.2634 22.8125 26.7448 22.8125 30.375C22.8125 34.0051 24.2546 37.4866 26.8215 40.0535C29.3884 42.6204 32.8698 44.0625 36.5 44.0625Z" fill="#FF6464"/>
</g>
<defs>
<clipPath id="clip0_16_161">
<rect width="73" height="73" fill="white"/>
</clipPath>
</defs>
</svg>
