<svg xmlns="http://www.w3.org/2000/svg" width="25.423" height="25.538" viewBox="0 0 25.423 25.538"><path id="whatsapp" d="M21.709,3.713A12.536,12.536,0,0,0,12.76,0,12.664,12.664,0,0,0,1.789,18.98L0,25.538l6.71-1.759a12.662,12.662,0,0,0,6.049,1.54h.006A12.651,12.651,0,0,0,21.708,3.713ZM12.76,23.178A10.491,10.491,0,0,1,7.4,21.709l-.383-.23L3.039,22.523,4.1,18.64l-.249-.4a10.514,10.514,0,1,1,8.906,4.938ZM18.53,15.3c-.314-.158-1.867-.923-2.16-1.031s-.5-.158-.71.158-.819,1.031-1,1.237-.37.236-.686.08a8.634,8.634,0,0,1-2.541-1.572,9.65,9.65,0,0,1-1.761-2.19c-.182-.316-.018-.485.14-.643.139-.14.314-.37.472-.552a2.018,2.018,0,0,0,.316-.527.589.589,0,0,0-.024-.554C10.5,9.55,9.866,7.99,9.6,7.361s-.516-.535-.71-.543-.394-.011-.607-.011a1.164,1.164,0,0,0-.844.394,3.544,3.544,0,0,0-1.1,2.64,6.126,6.126,0,0,0,1.293,3.27,14.059,14.059,0,0,0,5.4,4.776,17.593,17.593,0,0,0,1.8.667,4.344,4.344,0,0,0,1.989.128,3.276,3.276,0,0,0,2.136-1.505,2.647,2.647,0,0,0,.182-1.505c-.078-.134-.29-.212-.607-.37Z" fill="#00b3c8"/></svg>
