<svg width="23" height="23" viewBox="0 0 23 23" fill="none" xmlns="http://www.w3.org/2000/svg">
<path fill-rule="evenodd" clip-rule="evenodd" d="M11.5 1.43746C12.0663 1.43746 12.6271 1.549 13.1503 1.76573C13.6735 1.98245 14.1489 2.3001 14.5494 2.70056C14.9499 3.10101 15.2675 3.57642 15.4842 4.09963C15.701 4.62285 15.8125 5.18363 15.8125 5.74996C15.8125 6.31628 15.701 6.87706 15.4842 7.40028C15.2675 7.92349 14.9499 8.3989 14.5494 8.79935C14.1489 9.19981 13.6735 9.51746 13.1503 9.73419C12.6271 9.95091 12.0663 10.0625 11.5 10.0625C10.3563 10.0625 9.25935 9.6081 8.4506 8.79935C7.64185 7.9906 7.1875 6.8937 7.1875 5.74996C7.1875 4.60621 7.64185 3.50931 8.4506 2.70056C9.25935 1.89181 10.3563 1.43746 11.5 1.43746ZM17.25 5.74996C17.2499 4.6434 16.9305 3.56039 16.3302 2.63086C15.7298 1.70132 14.874 0.964765 13.8654 0.509559C12.8568 0.0543526 11.7383 -0.100163 10.6441 0.0645519C9.54986 0.229267 8.52641 0.706216 7.69653 1.43817C6.86665 2.17012 6.2656 3.12599 5.9655 4.19106C5.6654 5.25614 5.67899 6.38519 6.00466 7.44274C6.33032 8.50028 6.95421 9.44139 7.80147 10.1532C8.64874 10.8649 9.68338 11.3171 10.7812 11.4554V19.4062C10.7812 19.5968 10.857 19.7796 10.9918 19.9144C11.1266 20.0492 11.3094 20.125 11.5 20.125C11.6906 20.125 11.8734 20.0492 12.0082 19.9144C12.143 19.7796 12.2188 19.5968 12.2188 19.4062V11.4568C13.6089 11.2817 14.8872 10.605 15.8136 9.55392C16.7401 8.50282 17.2508 7.15106 17.25 5.74996ZM13.6663 18.0751C13.6351 18.263 13.6799 18.4557 13.7906 18.6106C13.9014 18.7656 14.0692 18.8703 14.2571 18.9016C15.2806 19.0713 16.0971 19.3257 16.6362 19.6103C16.8342 19.7055 17.0142 19.8344 17.1681 19.9913C17.2028 20.0292 17.2306 20.073 17.25 20.1206V20.125L17.2471 20.1365C17.2415 20.1532 17.2337 20.1691 17.2241 20.1839C17.1674 20.2671 17.0969 20.34 17.0157 20.3995C16.7785 20.5864 16.3904 20.7876 15.847 20.9673C14.7674 21.3267 13.2308 21.5625 11.5 21.5625C9.76925 21.5625 8.23256 21.3281 7.153 20.9673C6.60962 20.7862 6.2215 20.5864 5.98431 20.3995C5.90262 20.3401 5.83165 20.2672 5.77444 20.1839C5.76533 20.169 5.75809 20.1531 5.75287 20.1365L5.75 20.125V20.1192C5.7694 20.0716 5.79715 20.0277 5.83194 19.9898C5.98591 19.8335 6.16588 19.7051 6.36381 19.6103C6.90431 19.3257 7.71937 19.0713 8.74288 18.9016C8.83821 18.8887 8.92999 18.8568 9.01276 18.8078C9.09553 18.7587 9.16761 18.6935 9.22473 18.6161C9.28185 18.5387 9.32285 18.4506 9.34529 18.357C9.36773 18.2635 9.37116 18.1664 9.35537 18.0715C9.33959 17.9766 9.30491 17.8858 9.25339 17.8045C9.20187 17.7233 9.13457 17.6532 9.05546 17.5984C8.97636 17.5437 8.88706 17.5054 8.79287 17.4857C8.69868 17.4661 8.60151 17.4656 8.50712 17.4843C7.40025 17.6668 6.41988 17.9558 5.69394 18.3381C5.03125 18.6875 4.3125 19.2625 4.3125 20.125C4.3125 20.7373 4.68625 21.206 5.0945 21.5294C5.51137 21.8571 6.072 22.1231 6.69875 22.3315C7.96087 22.7527 9.65856 23 11.5 23C13.3414 23 15.0391 22.7527 16.3013 22.3315C16.928 22.1231 17.4886 21.8571 17.9055 21.5294C18.3138 21.206 18.6875 20.7373 18.6875 20.125C18.6875 19.2639 17.9688 18.6875 17.3061 18.3381C16.5801 17.9558 15.5997 17.6668 14.4929 17.4843C14.3049 17.4531 14.1123 17.4978 13.9573 17.6086C13.8023 17.7194 13.6977 17.8872 13.6663 18.0751Z" fill="#FF6464"/>
</svg>
