<svg xmlns="http://www.w3.org/2000/svg" width="99.183" height="94.802" viewBox="0 0 99.183 94.802">
  <g id="Polígono_8" data-name="Polígono 8" transform="translate(4.709) rotate(3)" fill="none">
    <path d="M61.919,0,85.57,17.183l9.034,27.8L85.57,72.79,61.919,89.974H32.685L9.034,72.79,0,44.987l9.034-27.8L32.685,0Z" stroke="none"/>
    <path d="M 34.30947494506836 5 L 13.28712463378906 20.27362823486328 L 5.257301330566406 44.98686599731445 L 13.28712463378906 69.70010375976563 L 34.30947494506836 84.97373199462891 L 60.29450225830078 84.97373199462891 L 81.31684112548828 69.70010375976563 L 89.34666442871094 44.98686599731445 L 81.31684112548828 20.27362060546875 L 60.29450225830078 5 L 34.30947494506836 5 M 32.68487548828125 0 L 61.91910552978516 0 L 85.57009124755859 17.18344879150391 L 94.60397338867188 44.98686599731445 L 85.57009124755859 72.790283203125 L 61.91910552978516 89.97373199462891 L 32.68487548828125 89.97373199462891 L 9.03387451171875 72.790283203125 L -7.62939453125e-06 44.98686599731445 L 9.03387451171875 17.18344879150391 L 32.68487548828125 0 Z" stroke="none" fill="#ff5851"/>
  </g>
</svg>
